<svg xmlns="http://www.w3.org/2000/svg" width="580" height="371" viewBox="0 0 580 371"><path fill="#0054A5" d="M244.583 162.236h20.563l-.031 3.308c0 16.692-12.511 25.038-37.53 25.038-16.98 0-28.09-2.889-33.332-8.665-5.244-5.777-7.863-18.015-7.863-36.716 0-16.617 2.74-27.782 8.22-33.5 5.481-5.718 16.174-8.577 32.081-8.577 15.25 0 25.466 2.783 30.649 8.35s7.775 16.507 7.775 32.822l.031 6.251h-57.847c-.147 1.904-.22 3.153-.22 3.749 0 8.388 1.297 13.98 3.894 16.776 2.594 2.796 7.771 4.194 15.529 4.194 7.519 0 12.412-.816 14.679-2.454 2.266-1.636 3.402-5.16 3.402-10.576zm.179-24.182l-.09-3.388c0-6.776-1.177-11.174-3.533-13.195-2.355-2.019-7.465-3.031-15.332-3.031-7.63 0-12.592 1.219-14.887 3.657-2.296 2.437-3.442 7.756-3.442 15.958h37.284z"/><path fill="#00ADEE" d="M353.268 104.199v87.054c0 13.972-2.815 23.554-8.445 28.75-5.63 5.193-16.008 7.792-31.136 7.792-14.651 0-24.451-1.971-29.394-5.911-4.946-3.942-7.416-11.734-7.416-23.376h19.85c0 5.59 1.043 9.181 3.13 10.777 2.087 1.591 6.734 2.389 13.947 2.389 12.696 0 19.045-5.286 19.045-15.853v-19.23l-.447-.088c-3.637 9.119-11.984 13.676-25.04 13.676-12.939 0-21.775-3.13-26.515-9.393-4.74-6.264-7.11-17.954-7.11-35.074 0-16.104 2.37-27.227 7.11-33.372 4.74-6.142 13.337-9.215 25.798-9.215 13.592 0 22.505 5.065 26.739 15.195h.445l-.98-14.121h20.419zm-40.324 15.047c-7.874 0-12.929 1.602-15.164 4.801-2.239 3.199-3.356 10.481-3.356 21.844 0 12.082 1.117 19.797 3.356 23.145 2.235 3.35 7.378 5.023 15.43 5.023s13.271-1.719 15.655-5.158c2.385-3.438 3.579-11.05 3.579-22.832 0-11.302-1.195-18.598-3.579-21.888-2.384-3.289-7.692-4.935-15.921-4.935zM366.942 124.603v64.592s20.42-4.188 20.42-20.313v-64.592s-20.42 4.187-20.42 20.313zM401.085 104.199h20.826l-.806 12.693.447.088c4.952-9.236 14.169-13.856 27.654-13.856 12.469 0 21.044 3.083 25.729 9.246 4.684 6.163 7.026 17.404 7.026 33.722 0 17.035-2.328 28.708-6.981 35.02-4.654 6.314-13.275 9.469-25.863 9.469-13.426 0-22.197-4.454-26.313-13.365h-.357v28.376c0 20.859-21.361 20.725-21.361 20.725v-122.118zm40.394 15.047c-7.823 0-12.928 1.761-15.317 5.282-2.389 3.52-3.581 10.976-3.581 22.37 0 11.098 1.282 18.466 3.849 22.106 2.568 3.639 7.792 5.457 15.674 5.457 8.002 0 13.195-1.729 15.584-5.189 2.389-3.459 3.583-10.888 3.583-22.284 0-11.692-1.209-19.241-3.627-22.641-2.418-3.401-7.806-5.101-16.165-5.101z"/><path fill="#0054A5" d="M99.08 67.3s21.361-.135 21.361 20.724v28.377h.357c4.116-8.911 12.886-13.365 26.312-13.365 12.588 0 21.209 3.155 25.863 9.469 4.653 6.312 6.981 17.985 6.981 35.019 0 16.318-2.342 27.559-7.025 33.722-4.685 6.163-13.26 9.247-25.729 9.247-13.485 0-22.702-4.62-27.654-13.856l-.447.089.806 12.693h-20.825v-122.119zm56.559 101.97c2.418-3.401 3.627-10.949 3.627-22.641 0-11.396-1.194-18.824-3.583-22.283-2.389-3.459-7.582-5.189-15.584-5.189-7.882 0-13.107 1.818-15.674 5.458s-3.85 11.007-3.85 22.105c0 11.394 1.192 18.85 3.581 22.37 2.389 3.52 7.494 5.281 15.317 5.281 8.359 0 13.747-1.7 16.166-5.101z"/><circle fill="#00ADEE" cx="376.541" cy="83.259" r="14.687"/><path fill="#00ADEE" d="M64.034 270.84h-4.052c0-3.233.733-5.406 2.2-6.519 1.467-1.113 4.337-1.67 8.611-1.67 4.643 0 7.78.684 9.412 2.049 1.632 1.366 2.448 3.967 2.448 7.802v18.41h-4.071l.319-3.005-.087-.029c-1.555 2.304-4.713 3.455-9.473 3.455-7.035 0-10.552-2.832-10.552-8.499 0-3.368.787-5.695 2.361-6.98 1.574-1.285 4.421-1.928 8.541-1.928 4.897 0 7.832.964 8.803 2.893l.088-.029v-3.384c0-3.173-.438-5.228-1.314-6.167-.876-.938-2.794-1.407-5.752-1.407-5.022 0-7.533 1.399-7.533 4.197 0 .137.017.406.051.811zm6.564 6.27c-3.122 0-5.153.332-6.093.995-.94.663-1.41 2.087-1.41 4.272 0 2.263.465 3.76 1.396 4.491.931.732 2.821 1.097 5.671 1.097 5.739 0 8.608-1.755 8.608-5.267 0-2.204-.558-3.686-1.672-4.447-1.116-.76-3.282-1.141-6.5-1.141zM113.512 263.026v29.685c0 4.039-.874 6.815-2.622 8.331-1.749 1.514-4.954 2.272-9.616 2.272-4.157 0-6.994-.642-8.509-1.924-1.516-1.283-2.273-3.683-2.273-7.201h3.936c0 2.395.442 3.953 1.326 4.675.885.72 2.824 1.081 5.817 1.081 3.109 0 5.199-.467 6.268-1.4 1.069-.934 1.603-2.763 1.603-5.486v-5.587l-.088-.029c-1.05 2.595-4.081 3.892-9.095 3.892-4.121 0-6.958-1.015-8.512-3.046-1.554-2.031-2.332-5.738-2.332-11.121 0-5.577.792-9.39 2.375-11.44 1.584-2.05 4.523-3.076 8.819-3.076 4.567 0 7.549 1.389 8.949 4.167l.087-.029-.203-3.763h4.07zm-12.147 2.995c-3.198 0-5.271.676-6.221 2.028-.95 1.353-1.424 4.314-1.424 8.886 0 4.611.475 7.602 1.424 8.974.95 1.372 3.023 2.057 6.221 2.057 3.236 0 5.368-.754 6.395-2.261 1.027-1.508 1.541-4.645 1.541-9.412 0-4.202-.514-6.965-1.541-8.288-1.027-1.322-3.159-1.984-6.395-1.984zM140.048 282.491h4.169l.044 1.021c0 2.9-.88 4.928-2.641 6.086-1.761 1.158-4.85 1.736-9.265 1.736-5.136 0-8.507-.937-10.111-2.813-1.605-1.875-2.408-5.815-2.408-11.821 0-5.557.806-9.288 2.421-11.193 1.614-1.905 4.773-2.857 9.478-2.857 5.132 0 8.496.825 10.091 2.473 1.594 1.648 2.391 5.119 2.391 10.413v2.182h-20.057c0 4.412.471 7.222 1.414 8.432.942 1.211 3.144 1.815 6.603 1.815 3.284 0 5.418-.288 6.399-.864.981-.576 1.472-1.822 1.472-3.736v-.874zm0-7.954l-.029-1.308c0-3.003-.496-4.955-1.487-5.856-.991-.901-3.129-1.352-6.413-1.352-3.305 0-5.448.529-6.429 1.584-.982 1.056-1.472 3.367-1.472 6.932h15.83zM150.678 263.026h3.925l-.116 3.792.116.088c1.243-2.836 4.333-4.254 9.269-4.254 3.983 0 6.679.698 8.088 2.093 1.409 1.396 2.114 4.07 2.114 8.024v18.145h-4.071v-18.845000000000002c0-2.384-.457-3.988-1.371-4.812-.914-.824-2.674-1.236-5.279-1.236-5.736 0-8.604 2.707-8.604 8.12v16.773h-4.071v-27.888zM200.603 280.854h4.081l.037 1.519c0 5.975-3.909 8.963-11.728 8.963-5.018 0-8.334-.942-9.948-2.827-1.614-1.885-2.421-5.771-2.421-11.66 0-5.518.821-9.265 2.464-11.237 1.643-1.972 4.768-2.959 9.377-2.959 4.53 0 7.622.665 9.274 1.996 1.652 1.331 2.479 3.832 2.479 7.503h-4.081l-.001-.73c0-2.16-.534-3.6-1.603-4.32-1.068-.719-3.195-1.08-6.38-1.08-3.069 0-5.04.681-5.914 2.043-.874 1.362-1.311 4.417-1.311 9.163 0 4.631.5 7.578 1.5 8.843 1 1.265 3.335 1.896 7.007 1.896 3.107 0 5.079-.415 5.914-1.244.836-.83 1.254-2.786 1.254-5.869zM229.788 282.491h4.169l.044 1.021c0 2.9-.88 4.928-2.641 6.086-1.761 1.158-4.85 1.736-9.265 1.736-5.136 0-8.507-.937-10.111-2.813-1.605-1.875-2.408-5.815-2.408-11.821 0-5.557.806-9.288 2.421-11.193 1.614-1.905 4.773-2.857 9.478-2.857 5.132 0 8.496.825 10.091 2.473 1.594 1.648 2.391 5.119 2.391 10.413v2.182h-20.057c0 4.412.471 7.222 1.414 8.432.942 1.211 3.144 1.815 6.603 1.815 3.284 0 5.418-.288 6.399-.864.981-.576 1.472-1.822 1.472-3.736v-.874zm0-7.954l-.029-1.308c0-3.003-.496-4.955-1.487-5.856-.991-.901-3.129-1.352-6.413-1.352-3.305 0-5.447.529-6.429 1.584-.982 1.056-1.472 3.367-1.472 6.932h15.83z"/><path fill="#231F20" d="M244.489 251.141v4.586h-4.071v-4.586h4.071zm0 11.885v27.888h-4.071v-27.888h4.071zM251.643 263.026h4.071l-.087 4.201.087.087c1.573-3.108 4.605-4.662 9.094-4.662 4.721 0 7.588 1.554 8.599 4.662h.116c1.748-3.108 4.944-4.662 9.588-4.662 6.566 0 9.85 3.343 9.85 10.03v18.232h-4.071v-18.611c0-2.443-.438-4.1-1.312-4.973-.875-.872-2.527-1.309-4.958-1.309-3.227 0-5.415.607-6.562 1.82-1.147 1.213-1.72 3.527-1.72 6.942v16.131h-4.071v-18.232l-.058-1.284c0-3.585-2.051-5.377-6.153-5.377-5.561 0-8.341 3.018-8.341 9.053v15.84h-4.071v-27.888zM300.945 263.026h4.071l-.087 4.201.087.087c1.573-3.108 4.605-4.662 9.094-4.662 4.722 0 7.588 1.554 8.599 4.662h.116c1.748-3.108 4.944-4.662 9.588-4.662 6.566 0 9.85 3.343 9.85 10.03v18.232h-4.071v-18.611c0-2.443-.438-4.1-1.312-4.973-.875-.872-2.527-1.309-4.958-1.309-3.227 0-5.415.607-6.562 1.82-1.147 1.213-1.72 3.527-1.72 6.942v16.131h-4.071v-18.232l-.058-1.284c0-3.585-2.051-5.377-6.153-5.377-5.561 0-8.341 3.018-8.341 9.053v15.84h-4.071v-27.888zM361.743 262.652c5.146 0 8.485.894 10.019 2.682 1.534 1.788 2.302 5.675 2.302 11.66 0 5.986-.768 9.872-2.302 11.66-1.534 1.788-4.874 2.682-10.019 2.682-5.127 0-8.457-.893-9.991-2.682-1.534-1.788-2.301-5.674-2.301-11.66 0-5.985.767-9.871 2.301-11.66 1.534-1.788 4.864-2.682 9.991-2.682zm0 3.369c-3.601 0-5.834.589-6.695 1.766-.861 1.177-1.292 4.246-1.292 9.207s.431 8.03 1.292 9.207c.861 1.177 3.093 1.766 6.695 1.766 3.621 0 5.862-.589 6.723-1.766.861-1.177 1.293-4.246 1.293-9.207s-.431-8.03-1.293-9.207c-.861-1.178-3.103-1.766-6.723-1.766zM380.452 290.914v-39.773h4.071v15.444l.088.088c.933-2.68 3.984-4.021 9.154-4.021 4.081 0 6.899 1.059 8.453 3.177 1.554 2.119 2.332 5.956 2.332 11.514 0 5.267-.821 8.915-2.463 10.946-1.642 2.031-4.611 3.046-8.906 3.046-4.373 0-7.288-1.297-8.745-3.892l-.116.029.203 3.442h-4.071zm12.264-24.893c-3.198 0-5.34.686-6.425 2.057-1.085 1.372-1.627 4.1-1.627 8.186 0 5.039.489 8.249 1.468 9.63.978 1.382 3.232 2.072 6.758 2.072 2.984 0 4.957-.705 5.916-2.116.959-1.41 1.439-4.304 1.439-8.682 0-4.61-.475-7.62-1.425-9.031-.95-1.411-2.985-2.116-6.104-2.116zM415.048 251.141v4.586h-4.071v-4.586h4.071zm0 11.885v27.888h-4.071v-27.888h4.071zM426.273 251.141v39.773h-4.071v-39.773h4.071zM437.527 251.141v4.586h-4.071v-4.586h4.071zm0 11.885v27.888h-4.071v-27.888h4.071zM464.051 282.491h4.169l.044 1.021c0 2.9-.88 4.928-2.641 6.086-1.761 1.158-4.849 1.736-9.265 1.736-5.136 0-8.507-.937-10.111-2.813-1.606-1.875-2.408-5.815-2.408-11.821 0-5.557.806-9.288 2.421-11.193 1.614-1.905 4.773-2.857 9.478-2.857 5.132 0 8.496.825 10.091 2.473 1.594 1.648 2.392 5.119 2.392 10.413v2.182h-20.057c0 4.412.471 7.222 1.414 8.432.942 1.211 3.144 1.815 6.603 1.815 3.284 0 5.418-.288 6.399-.864.981-.576 1.472-1.822 1.472-3.736v-.874zm0-7.954l-.029-1.308c0-3.003-.496-4.955-1.487-5.856-.991-.901-3.129-1.352-6.413-1.352-3.305 0-5.448.529-6.429 1.584-.982 1.056-1.472 3.367-1.472 6.932h15.83zm-12.068-22.989l7.9 5.957-1.428 2.151-8.572-5.26 2.1-2.848zM475.056 263.026h4.071l-.407 3.209.088.088c1.611-2.603 4.271-3.905 7.979-3.905 5.125 0 7.688 2.636 7.688 7.908l-.013 1.918h-4.023l.076-.698c.05-.737.076-1.231.076-1.483 0-2.85-1.552-4.276-4.656-4.276-4.539 0-6.808 2.804-6.808 8.411v16.715h-4.071v-27.887zM517.842 282.491h4.169l.044 1.021c0 2.9-.88 4.928-2.641 6.086-1.76 1.158-4.849 1.736-9.265 1.736-5.136 0-8.507-.937-10.111-2.813-1.606-1.875-2.408-5.815-2.408-11.821 0-5.557.806-9.288 2.421-11.193 1.614-1.905 4.773-2.857 9.478-2.857 5.132 0 8.496.825 10.091 2.473 1.594 1.648 2.392 5.119 2.392 10.413v2.182h-20.057c0 4.412.471 7.222 1.414 8.432.942 1.211 3.144 1.815 6.603 1.815 3.284 0 5.418-.288 6.399-.864.981-.576 1.472-1.822 1.472-3.736v-.874zm0-7.954l-.029-1.308c0-3.003-.496-4.955-1.487-5.856-.991-.901-3.129-1.352-6.413-1.352-3.305 0-5.448.529-6.429 1.584-.982 1.056-1.472 3.367-1.472 6.932h15.83z"/></svg>